<?xml version="1.0" standalone="no"?>
<!DOCTYPE svg PUBLIC "-//W3C//DTD SVG 20010904//EN"
 "http://www.w3.org/TR/2001/REC-SVG-20010904/DTD/svg10.dtd">
<svg version="1.0" xmlns="http://www.w3.org/2000/svg"
 width="383.000000pt" height="383.000000pt" viewBox="0 0 383.000000 383.000000"
 preserveAspectRatio="xMidYMid meet">
<metadata>
Created by potrace 1.11, written by Peter Selinger 2001-2013
</metadata>
<g transform="translate(0.000000,383.000000) scale(0.100000,-0.100000)"
fill="#000000" stroke="none">
<path d="M600 3809 c-86 -39 -137 -110 -147 -203 -24 -232 262 -370 426 -205
129 129 87 343 -82 414 -52 21 -142 19 -197 -6z m155 -174 c16 -15 25 -36 25
-55 0 -38 -39 -80 -74 -80 -32 0 -73 37 -82 72 -5 22 0 34 24 58 37 37 74 39
107 5z"/>
<path d="M1783 3410 c-1021 -108 -1717 -1068 -1502 -2069 144 -667 677 -1182
1364 -1318 140 -28 504 -25 642 5 144 31 271 75 398 136 l110 52 40 -29 c216
-160 514 -138 704 52 110 109 161 232 161 386 0 139 -44 258 -135 361 -31 37
-41 54 -34 65 17 27 78 225 100 329 31 141 34 484 6 625 -70 352 -216 638
-450 882 -264 276 -588 446 -967 509 -109 18 -331 25 -437 14z m484 -199 c615
-136 1073 -604 1194 -1223 18 -89 23 -148 23 -278 0 -190 -17 -303 -71 -472
-32 -102 -36 -110 -56 -104 -106 30 -158 38 -232 33 -145 -10 -272 -71 -369
-179 -96 -105 -141 -229 -139 -378 1 -79 16 -144 57 -241 7 -15 -56 -49 -189
-104 -149 -61 -416 -102 -604 -92 -697 36 -1264 511 -1428 1197 -37 154 -44
426 -15 595 52 304 188 574 401 797 249 262 550 415 926 472 17 2 116 3 220 1
145 -3 212 -8 282 -24z m1030 -2243 c75 -27 155 -104 195 -186 30 -60 33 -75
33 -157 0 -76 -4 -99 -27 -147 -15 -32 -48 -80 -74 -108 -176 -188 -485 -138
-601 98 -25 51 -28 68 -28 157 0 89 3 106 28 156 33 68 119 152 184 181 89 39
195 41 290 6z"/>
<path d="M2415 2697 c-52 -20 -99 -54 -123 -87 -53 -71 -66 -173 -32 -247 19
-42 19 -43 -1 -100 -29 -84 -23 -226 13 -303 113 -242 406 -325 623 -175 164
113 225 338 140 522 -46 101 -171 206 -271 227 -19 4 -35 16 -42 30 -18 40
-73 96 -116 118 -48 25 -148 33 -191 15z m106 -167 c21 0 49 -42 49 -72 0 -91
-135 -107 -155 -18 -10 46 45 109 83 95 8 -3 18 -5 23 -5z m271 -199 c65 -41
100 -104 105 -189 4 -59 1 -74 -24 -122 -70 -137 -239 -179 -362 -89 -73 52
-113 155 -97 244 7 36 7 37 47 30 86 -15 192 35 245 115 15 22 30 40 33 40 4
0 28 -13 53 -29z"/>
<path d="M1893 2444 c-109 -54 -81 -217 42 -240 69 -13 145 56 145 131 0 63
-63 125 -127 125 -15 0 -42 -8 -60 -16z"/>
<path d="M1063 1655 c-39 -17 -63 -52 -69 -102 -10 -78 61 -149 139 -139 59 7
117 71 117 128 0 37 -34 90 -71 110 -40 21 -72 22 -116 3z"/>
<path d="M1246 1156 c-159 -59 -222 -252 -126 -385 118 -163 356 -136 439 49
53 117 -4 267 -123 324 -52 25 -141 30 -190 12z m139 -186 c46 -50 10 -130
-58 -130 -66 0 -103 84 -57 130 27 27 90 27 115 0z"/>
<path d="M1733 1115 c-67 -29 -96 -133 -52 -189 79 -101 229 -52 229 74 0 56
-26 95 -76 116 -41 17 -60 17 -101 -1z"/>
<path d="M184 3191 c-47 -28 -64 -59 -64 -112 0 -116 140 -169 220 -84 31 33
39 114 16 150 -40 61 -115 81 -172 46z"/>
</g>
</svg>
